<mxfile host="app.diagrams.net" modified="2020-12-10T04:10:56.173Z" agent="5.0 (Windows NT 10.0; Win64; x64) AppleWebKit/537.36 (KHTML, like Gecko) Chrome/87.0.4280.88 Safari/537.36" etag="agtDCYEyqcMpINhLsy5P" version="14.0.0" type="github">
  <diagram id="R2lEEEUBdFMjLlhIrx00" name="Page-1">
    <mxGraphModel dx="868" dy="424" grid="1" gridSize="10" guides="1" tooltips="1" connect="1" arrows="1" fold="1" page="1" pageScale="1" pageWidth="850" pageHeight="1100" math="0" shadow="0" extFonts="Permanent Marker^https://fonts.googleapis.com/css?family=Permanent+Marker">
      <root>
        <mxCell id="0" />
        <mxCell id="1" parent="0" />
        <mxCell id="C-vyLk0tnHw3VtMMgP7b-2" value="Orders" style="shape=table;startSize=30;container=1;collapsible=1;childLayout=tableLayout;fixedRows=1;rowLines=0;fontStyle=1;align=center;resizeLast=1;" parent="1" vertex="1">
          <mxGeometry x="330" y="520" width="250" height="130" as="geometry" />
        </mxCell>
        <mxCell id="C-vyLk0tnHw3VtMMgP7b-3" value="" style="shape=partialRectangle;collapsible=0;dropTarget=0;pointerEvents=0;fillColor=none;points=[[0,0.5],[1,0.5]];portConstraint=eastwest;top=0;left=0;right=0;bottom=1;" parent="C-vyLk0tnHw3VtMMgP7b-2" vertex="1">
          <mxGeometry y="30" width="250" height="30" as="geometry" />
        </mxCell>
        <mxCell id="C-vyLk0tnHw3VtMMgP7b-4" value="PK" style="shape=partialRectangle;overflow=hidden;connectable=0;fillColor=none;top=0;left=0;bottom=0;right=0;fontStyle=1;" parent="C-vyLk0tnHw3VtMMgP7b-3" vertex="1">
          <mxGeometry width="30" height="30" as="geometry" />
        </mxCell>
        <mxCell id="C-vyLk0tnHw3VtMMgP7b-5" value="order_id int NOT NULL " style="shape=partialRectangle;overflow=hidden;connectable=0;fillColor=none;top=0;left=0;bottom=0;right=0;align=left;spacingLeft=6;fontStyle=5;" parent="C-vyLk0tnHw3VtMMgP7b-3" vertex="1">
          <mxGeometry x="30" width="220" height="30" as="geometry" />
        </mxCell>
        <mxCell id="C-vyLk0tnHw3VtMMgP7b-6" value="" style="shape=partialRectangle;collapsible=0;dropTarget=0;pointerEvents=0;fillColor=none;points=[[0,0.5],[1,0.5]];portConstraint=eastwest;top=0;left=0;right=0;bottom=0;" parent="C-vyLk0tnHw3VtMMgP7b-2" vertex="1">
          <mxGeometry y="60" width="250" height="30" as="geometry" />
        </mxCell>
        <mxCell id="C-vyLk0tnHw3VtMMgP7b-7" value="FK1" style="shape=partialRectangle;overflow=hidden;connectable=0;fillColor=none;top=0;left=0;bottom=0;right=0;" parent="C-vyLk0tnHw3VtMMgP7b-6" vertex="1">
          <mxGeometry width="30" height="30" as="geometry" />
        </mxCell>
        <mxCell id="C-vyLk0tnHw3VtMMgP7b-8" value="customer_id int NOT NULL" style="shape=partialRectangle;overflow=hidden;connectable=0;fillColor=none;top=0;left=0;bottom=0;right=0;align=left;spacingLeft=6;" parent="C-vyLk0tnHw3VtMMgP7b-6" vertex="1">
          <mxGeometry x="30" width="220" height="30" as="geometry" />
        </mxCell>
        <mxCell id="C-vyLk0tnHw3VtMMgP7b-9" value="" style="shape=partialRectangle;collapsible=0;dropTarget=0;pointerEvents=0;fillColor=none;points=[[0,0.5],[1,0.5]];portConstraint=eastwest;top=0;left=0;right=0;bottom=0;" parent="C-vyLk0tnHw3VtMMgP7b-2" vertex="1">
          <mxGeometry y="90" width="250" height="30" as="geometry" />
        </mxCell>
        <mxCell id="C-vyLk0tnHw3VtMMgP7b-10" value="" style="shape=partialRectangle;overflow=hidden;connectable=0;fillColor=none;top=0;left=0;bottom=0;right=0;" parent="C-vyLk0tnHw3VtMMgP7b-9" vertex="1">
          <mxGeometry width="30" height="30" as="geometry" />
        </mxCell>
        <mxCell id="C-vyLk0tnHw3VtMMgP7b-11" value="order_date date NOT NULL" style="shape=partialRectangle;overflow=hidden;connectable=0;fillColor=none;top=0;left=0;bottom=0;right=0;align=left;spacingLeft=6;" parent="C-vyLk0tnHw3VtMMgP7b-9" vertex="1">
          <mxGeometry x="30" width="220" height="30" as="geometry" />
        </mxCell>
        <mxCell id="C-vyLk0tnHw3VtMMgP7b-13" value="database name: google_maps&#xa;table name : gmaps_details" style="shape=table;startSize=30;container=1;collapsible=1;childLayout=tableLayout;fixedRows=1;rowLines=0;fontStyle=1;align=center;resizeLast=1;" parent="1" vertex="1">
          <mxGeometry x="50" y="540" width="250" height="130" as="geometry" />
        </mxCell>
        <mxCell id="C-vyLk0tnHw3VtMMgP7b-14" value="" style="shape=partialRectangle;collapsible=0;dropTarget=0;pointerEvents=0;fillColor=none;points=[[0,0.5],[1,0.5]];portConstraint=eastwest;top=0;left=0;right=0;bottom=1;" parent="C-vyLk0tnHw3VtMMgP7b-13" vertex="1">
          <mxGeometry y="30" width="250" height="30" as="geometry" />
        </mxCell>
        <mxCell id="C-vyLk0tnHw3VtMMgP7b-15" value="PK" style="shape=partialRectangle;overflow=hidden;connectable=0;fillColor=none;top=0;left=0;bottom=0;right=0;fontStyle=1;" parent="C-vyLk0tnHw3VtMMgP7b-14" vertex="1">
          <mxGeometry width="30" height="30" as="geometry" />
        </mxCell>
        <mxCell id="C-vyLk0tnHw3VtMMgP7b-16" value="shipment_id int NOT NULL " style="shape=partialRectangle;overflow=hidden;connectable=0;fillColor=none;top=0;left=0;bottom=0;right=0;align=left;spacingLeft=6;fontStyle=5;" parent="C-vyLk0tnHw3VtMMgP7b-14" vertex="1">
          <mxGeometry x="30" width="220" height="30" as="geometry" />
        </mxCell>
        <mxCell id="C-vyLk0tnHw3VtMMgP7b-17" value="" style="shape=partialRectangle;collapsible=0;dropTarget=0;pointerEvents=0;fillColor=none;points=[[0,0.5],[1,0.5]];portConstraint=eastwest;top=0;left=0;right=0;bottom=0;" parent="C-vyLk0tnHw3VtMMgP7b-13" vertex="1">
          <mxGeometry y="60" width="250" height="30" as="geometry" />
        </mxCell>
        <mxCell id="C-vyLk0tnHw3VtMMgP7b-18" value="FK1" style="shape=partialRectangle;overflow=hidden;connectable=0;fillColor=none;top=0;left=0;bottom=0;right=0;" parent="C-vyLk0tnHw3VtMMgP7b-17" vertex="1">
          <mxGeometry width="30" height="30" as="geometry" />
        </mxCell>
        <mxCell id="C-vyLk0tnHw3VtMMgP7b-19" value="order_id int NOT NULL" style="shape=partialRectangle;overflow=hidden;connectable=0;fillColor=none;top=0;left=0;bottom=0;right=0;align=left;spacingLeft=6;" parent="C-vyLk0tnHw3VtMMgP7b-17" vertex="1">
          <mxGeometry x="30" width="220" height="30" as="geometry" />
        </mxCell>
        <mxCell id="C-vyLk0tnHw3VtMMgP7b-20" value="" style="shape=partialRectangle;collapsible=0;dropTarget=0;pointerEvents=0;fillColor=none;points=[[0,0.5],[1,0.5]];portConstraint=eastwest;top=0;left=0;right=0;bottom=0;" parent="C-vyLk0tnHw3VtMMgP7b-13" vertex="1">
          <mxGeometry y="90" width="250" height="30" as="geometry" />
        </mxCell>
        <mxCell id="C-vyLk0tnHw3VtMMgP7b-21" value="" style="shape=partialRectangle;overflow=hidden;connectable=0;fillColor=none;top=0;left=0;bottom=0;right=0;" parent="C-vyLk0tnHw3VtMMgP7b-20" vertex="1">
          <mxGeometry width="30" height="30" as="geometry" />
        </mxCell>
        <mxCell id="C-vyLk0tnHw3VtMMgP7b-22" value="shipment_date date NOT NULL" style="shape=partialRectangle;overflow=hidden;connectable=0;fillColor=none;top=0;left=0;bottom=0;right=0;align=left;spacingLeft=6;" parent="C-vyLk0tnHw3VtMMgP7b-20" vertex="1">
          <mxGeometry x="30" width="220" height="30" as="geometry" />
        </mxCell>
        <mxCell id="C-vyLk0tnHw3VtMMgP7b-23" value="database name: npi&#xa;table name : csvdata" style="shape=table;startSize=30;container=1;collapsible=1;childLayout=tableLayout;fixedRows=1;rowLines=0;fontStyle=1;align=center;resizeLast=1;" parent="1" vertex="1">
          <mxGeometry x="129" y="120" width="390" height="340" as="geometry" />
        </mxCell>
        <mxCell id="C-vyLk0tnHw3VtMMgP7b-24" value="" style="shape=partialRectangle;collapsible=0;dropTarget=0;pointerEvents=0;fillColor=none;points=[[0,0.5],[1,0.5]];portConstraint=eastwest;top=0;left=0;right=0;bottom=1;" parent="C-vyLk0tnHw3VtMMgP7b-23" vertex="1">
          <mxGeometry y="30" width="390" height="30" as="geometry" />
        </mxCell>
        <mxCell id="C-vyLk0tnHw3VtMMgP7b-25" value="PK" style="shape=partialRectangle;overflow=hidden;connectable=0;fillColor=none;top=0;left=0;bottom=0;right=0;fontStyle=1;" parent="C-vyLk0tnHw3VtMMgP7b-24" vertex="1">
          <mxGeometry width="30" height="30" as="geometry" />
        </mxCell>
        <mxCell id="C-vyLk0tnHw3VtMMgP7b-26" value="npi varchar(100)NOT NULL " style="shape=partialRectangle;overflow=hidden;connectable=0;fillColor=none;top=0;left=0;bottom=0;right=0;align=left;spacingLeft=6;fontStyle=5;" parent="C-vyLk0tnHw3VtMMgP7b-24" vertex="1">
          <mxGeometry x="30" width="360" height="30" as="geometry" />
        </mxCell>
        <mxCell id="C-vyLk0tnHw3VtMMgP7b-27" value="" style="shape=partialRectangle;collapsible=0;dropTarget=0;pointerEvents=0;fillColor=none;points=[[0,0.5],[1,0.5]];portConstraint=eastwest;top=0;left=0;right=0;bottom=0;" parent="C-vyLk0tnHw3VtMMgP7b-23" vertex="1">
          <mxGeometry y="60" width="390" height="30" as="geometry" />
        </mxCell>
        <mxCell id="C-vyLk0tnHw3VtMMgP7b-28" value="" style="shape=partialRectangle;overflow=hidden;connectable=0;fillColor=none;top=0;left=0;bottom=0;right=0;" parent="C-vyLk0tnHw3VtMMgP7b-27" vertex="1">
          <mxGeometry width="30" height="30" as="geometry" />
        </mxCell>
        <mxCell id="C-vyLk0tnHw3VtMMgP7b-29" value="" style="shape=partialRectangle;overflow=hidden;connectable=0;fillColor=none;top=0;left=0;bottom=0;right=0;align=left;spacingLeft=6;" parent="C-vyLk0tnHw3VtMMgP7b-27" vertex="1">
          <mxGeometry x="30" width="360" height="30" as="geometry" />
        </mxCell>
        <mxCell id="dYOXATitDUWGJcL5hWWd-2" value="" style="shape=image;verticalLabelPosition=bottom;labelBackgroundColor=#ffffff;verticalAlign=top;aspect=fixed;imageAspect=0;image=data:image/png,iVBORw0KGgoAAAANSUhEUgAAAT0AAAEOCAYAAAD7dcCeAAAgAElEQVR4Ae19/3NU15Hv/cPe1r6qd5NQfgpCivkDXm3FbIilqkhbtclCBBJDZX/YdSRV9m1wnmSBGZI4FljJ2uBkwSCMFEsybNbrgG2FSyAy1DqTrDPrTDyxql/16dPn2/02M0hipGlXyXfuPfec0/3p7s/tPneYEyVJAvInGIgPiA/0ig9EvaKo6ClBLT4gPoA+IKQnma5k+uIDPeUDQnri8D3l8JLtSbYnpCekJ6QnPtBTPiCkJw7fUw4vmZ5kekJ6QnpCeuIDPeUDQnri8D3l8JLpSabXRaQ3D6NRBNFTk7CSRUTnRyGKItg3tbJNQarnRxmiUZhfnoR9+HlkfpvmE+cTAhIfeBI+0EWkdxnGkWSenoPbWaR3ZVyR3sDp29tCQitT+9X4lWUAgCbU35mDAZTn2OXO50PiFNLsHL8sP5BruxrP1ZlDED8zC6uPZceLcDKO4eSrnT00uoj06tBEvtlsQC0LkG0mvdunBxTpjV/RQNYasKn4r96Zk3Gm+DikmYWDXOvMHoJbV+B2+6VhiIdezk5sWrbREkzGMUxe32LSW5nap0hgdITKSiwt3VIv1a4zGr6u7o8iGD2vBdMk4JanfC/dE5a3KzD5FJaa+LcPJmfTmd78CLcHZTETzsgolcxYrhYAynKwzEpPMwaVtzTXPhgdIVxID7ck1mWxmifver6RePzJqWy8kyR/TJZ/dEqX5AqzUZjXSwJKL2/ZwMXWt+uTKDdkzny/2FPYvHoS4jimP5PtUdbG1032tjYLh+IYDs2sarJehdlnYogrP6CjHsfcXxDfIYa5mR5nPtGxRcx3AJYrioCYtFLtzTpw8FGJGPSp3YOzB5EYjmgCWoFTgxFEB6twv45G98vblak+NR+NtQFzeG8UAZe3RBKDUH2Awi1BxSVlLk2jcSDpm1AvAKXW2ISH5wbtfM06JDyGztQuH6P5D7y4oeDYbNSAZKjAEl55UIVBI0Mdmnw+ga3F86NRePz+0/fV+EsTON9+mFxGbDRJHazCw9RcCRhbjF1V2SnrEg2cUffzeZ9aD2XC8+Vmu4YOIuc9QkgF8bFlPlBvwsMLmOktwENV0RGRDV1QXg3waAGG4kMwu5ZAgpXWowUYjg+r89WZw9Sv+SdobN6C6TiG6TWApuKO9mxUSnqV67q8qy8SsQyeUi8aONBMexKSWAJJ/T5UkehUnxrcqxKxjGH2t3wK+qMIBqv3dDnrkp4eK6rAolKqBo0bRLpEevMwhgRz8Czcq6HCdVhUJDFGhMqENbFYSHauMVkfU97yGB7pDcLZ9ZopE5iokIxHXw/K4aC/O1fWZxrLjr/+ImF1/HXUrwYNrLU3r8IRlcURAfN6I8s++OK6kq127YQicMaWzxV2GveIseGHkbZrlmxyrb2gErzy8fLK27Xvw7PxNNxs6JiqNeDmVAzPVnV2V2vABpKkyuqGYeFDXvrapvKWA8mQQLIOZ1SmdhwuJTa7sO2X4DgGpPci4jbMPY0BSn1qjTeJOI/Ow8rz/RBFNsj9TE+PdfAMrPMTyFvT0wTpEoD6fABmMDNqk3DQSVP6BmMQKQ3A3DvWoPVEZ3eOHCZjCvqXBUI4vi8PZ2cRHDj30GaVmpD53hPXtPN4WCWQuOcslyMzlfVkozI5pd3aX7BoHwuP9N74ti13uezF43OLJrGoNW6qrG74wgY0VIKDc+4Y6flExIFmSU+TYhbpGfLijGw/9KnSljM1VMTN9HyCVc7lBi7fy+WeKgjxf5sEDAd2Gy8RUvoEY4SkpGTilx0ApjyOoj4qSYP+ZQESju/JY7KzJcCyOiR17158SHhYBecslyq7DXAtleBlOkh7+yTQa5h5pHf3PAzH03DLdUP8jMtLOtm5WIkhHho2ZS5d32bSiwb09+bOj3klUyrQElu+HuGXF+ePeH1Q4Pp1KlMxu6jc4HQ1JD07liqFcU1rgEo6Km+ZPPvhlFrzCl6CcGBvK+lx9kUvSXBdkNbhTsBVfCLVrsIJzKZalKGQ9FifL82opYX5b2SXt+YBVER6XM5GeikgeGHDziZHIbDt8AGP9Gr34JWhGL5qXlbQSw3z8kK9+JiGW5ubVOZ+hb/qss2kV6nOQR+XQhM608gqB5ME3BcCVDJFgC8iVHbCZSqvDZr1OnYuN9OjsYhEMMD7YK7qruklUG+CJhlNAFEFlvjrLkwSLRIOGjdF4sEYISnROttDWrNkfCJ8scIvLZiYUb59+oUE65o+huN78uDahn7RonD9UgUquNSgSdC7tyzTU+uDgdyYMTtP1+1wdhkzbfNexKT261dgWJWyJ+Gi8sVbMOWWtlO3iC/0m97pNYqnWmMDFobw7e1FtYa/OkVvgQ1BMr+0cCx9kTF+TS/QB2knEhxd8o3J11WjylT9dnzpoL6Pl3qjmf6eHhIb/bcJjQaduARq2/EuJhv95kddsmlymYOx3OZtEJeumgxoLl0+G2D1CwYtpSmvdbuVL+wXYkIk7vYP5eFzNdVmE5rqxQZlytxmZNcTG6zCc34xwnLzw8LolZavDD9pF8xa8gGOKxOvzAfaGfnhq33W+DT7rBePQULVov+Wkx5/WbfFAVtSXMYyaxaCl5CF+MDO+kBvkB6vW5kylEtiOpovUG8XGT/p+bdLLxlXHl670AdySS9VMu1C5cwT1KTUXM/5R5tCb9MT50nPv5ttJ7ILsW6xD+SSniGMLZ5Qxt0mYhU7CTmID7TkA0J64igtOYo8rORhtVd8QEhPSE9IT3ygp3xASE8cvqccfq9kK6JH55m3kJ6QnpCe+EBP+UDkv8eUM0FAEBAE9jYCQnp7276inSAgCAQICOkFgMipICAI7G0EhPT2tn1FO0FAEAgQENILAJFTQUAQ2NsICOntbfuKdoKAIBAgIKQXACKngoAgsLcRENLb2/YV7QQBQSBAoItIT2/jmNr3Qkust6AcxI1xtuE/+pVm3lJyGyaQIQUBQaArEBDS02bYStLDfWbN3r9dYWYRQhDoDgTMvrePJY7d97aTYbqI9ErE3yWZHm+sLaRXYk9p7kkEupr0TPBO2N3LImfbwFS7buPr7sZAyroPaI9Ytzzle4kgwvLW3bxmEKrnSA63v904CDf+roIpfPVc0USF9tnFTYNKXCyV6WmSZT1c3YHH519i5rmL+uTMb+bV+qn5HJwBNC48l9GF8alA1d00aGLJ2zDJxQuA++hfjvbmyRFQLgsCW4XA2rTd53ZoQccrZW20oXcM02t6skcLagOh4Qsc1Q9pY6Cpy3TUmwmZ+9uQMTfTY0IywR5kWql2Z+9Xk+V4fTjgmID0ORMGB7c+5/FpLO4bAQexIYsHqK0mBg5iQ0o8Vzki3ngBQWfKwnJ7Otr9bw0GJVPTvHl6BRixXkpPi0k2RtzO65R8rjEJdCwRU5oFgS1BwM/0iMgMsSmiG4aFR3oq59zvt03lrR/oKISfiaXbgwBVcvvXvD6poHPHDwIUx/LIxb2XACLy8APaEDbdUvh/j/T4Tj0nZ3shuURqy0e+mY6ejn5T5lk4b3Z/rS9nex7pManxlpg55x5hoii+bTKFk4uCwBYj4JGXIjV/s+9bUzEYEkQvvTCss0OHDGHHSM8nonRwponIBJYpyfQ9E0tA/W2A+qSaMVYW6TEJmKMeLxXg5ZbzyIf7a1JL6RqQIZIiZ3ape0um9uZNZcuMuc4EWS6P9Gw2G47lnXNfgxVvjmT7l4gqzYLAYyPgkZ5b7gZ739qJiOBcIoSdIz2fiNLBnZU5pK9xIA7iZtVcIioN3fE52J2AzCI9r7+Fyay5cbnrNOV9ZLmqD9IlalpXOwr1QwIhWYvutb3sJ3devOr1Z6JiPbzzNEbhWN6519fOL58EgZ1EwCO9jEwvlAUzv3hoGIbjHcz0DDF5pBMEp5bUC1i8FvRRtzlZEmdH1N0lvXB8DvC8tS+/71aRHq0f6rFNNhfMFZaJWj9fNw1QxsEjpjzS0+RO90ZAZTtjYh8M4Vj+eXC/kGCGNeTSdiPgkR4Ea3o6gzNZncoEqfz1+213eXuO3rqGbxVTBKfR4uv+OpgLJZOIDVZqDcmE16gwi2rh7a0poQEel/RsWU4l4OBEBQYjS7imFDeloqsL6xdmsi4G9rNPTCHZ23OF58EKVEyGHJAYrrpOaKzUy530eaiXeaBZceSTILC9CKjsLoY45rU8IjB+extP3aL5delr387y21tqVxlg7K//tSp46dvbVjOWVieU+wQBQUAQeJIICOk9SfRlbkFAENhxBHqD9Hj9ypSjVLbml+BbZAdn/ZLnskf3zfUWzSfDCAKCQCkCuaRX2lNuEAQEAUFgFyIgpLcLjSYiCwKCQOcICOl1jp30FAQEgV2IgJDeLjSaiCwICAKdIyCk1zl20lMQEAR2IQJCervQaCKyICAIdI5AlCQJyJ9gID4gPtArPiCkJ6QvDz3xgZ7yASE9cfiecvheyWZEz/zMXUhPSE9IT3ygp3xASE8cvqccXjKg/AyoV7AR0hPSE9ITH+gpHxDSE4fvKYfvlWxG9MzPaIX0hPSE9MQHesoHuoj05mEUf/rpqUlYyXLC86OAP8u0b2qlCwz0mLIGuqxM7VO6jZ7PfzrJk1uwER/YGh/oItK7DONIek/Pwe0s0rsyrohh4PTtLiC9x5Q10OX26QGl2/iVrTGqBIfg2K0+sDpzCOJnZmE1K8ZbvnYRTsYxnHy1Mzt3EenVoYn/smSzAbUs5QOieLJGfUxZA12E9Dpz3ifrAyJzJ/jffmkY4qGXsxObrLjPvLYEk3EMk9c7s0Eu6ZmSa4TKSvWLvyPzJstKtes2vs6/EGxKtuVJ2BeUp3wv3ROWjCsw+RT/wvE+mJxNZ3rzI9welMV6rmhklErmaBTmM8Fj0Ozck86Y+6bmHRkiMLok9n4qxctkLW5Pk557fwSRg3uhoxm9Jx2598HkMuuZAGPO9rHLBVan1jBIINFlOo3lz1MoZ6EtrKwyxh7D4tWTeuPu2Mn2KGvjjYFM9rY2C4fiGA7NrGrOWYXZZ2KIKz+go94n19zfhk/lkh4HYnRskf5lr/7pcw6SVHuzbgLKbCbk9qndg7O4k1d0RBPQCpwapB3D7tfRuH7JuDLVp0o+GmsD5vDeKAIub4nw+CfX9Q5kTA7vzMGA+mn4cSDpm1AvBEXPHfXDXILq2h3Njt9wz5k825O1TBfGkspbJjy9w5r+qXvGvZAIjN7H4eqmsyvcN/TDSpMU24d2T+vTpNgmBnos2iaTd15jfPZYsBb6juha6JMudvUmmK0cVUVHRDZ04SFxzKMFGIoPwexaAkmtAZtq57TD6nx15jDEQwvwsPknaGzaLSCbijvas0Ep6VWu14lp64tQQSIZPKVeNHCgmvYkJLEEkvp9qCLRqT41uFcdVMQ1hgv2y6egH7dVrN7T5axLJHqsqAKLSqkaNG5UHNKbhzGU5eBZuFdDheuwqLY/HCNC5eCfWCwhOwaLA/4EXFXjrcMZRdA8P5+Pw2VlxHZkLdMlAcZSkZ7GJWLZ+WGhcS90sFDv2lU4gTh9aYZeDtXVAgLcn6UXJ5ShDcDcO4hDexjMH8WH0CCcXa8p/6hfJ/so27qOLp9NdVRoux7ByStv174Pz8bTcLNBPoREd3MqhmerOrurNWDjwrDODodh4UNe+tqm8tYLRGUQDvzjcCkJAlW1X4LjGGDei4jbMPc0Bgf1qTXeJOI8Og8rz/d7QWOCTvXXYx08A+vsDN46GAcoZX9cqkXRAZjBUo6D/9jlFh1Oj2fmY7mZ5MJzl/TKZC1rD7Bk2RFL748wLAwc7mv0duV0y9ETsGT2yQ1Ir0UMLh8L5aPzA7Pd8HadH2ZyLPQXjq0dPHqk98a3bbmry1VV5j63aOK21rgJ02p/2w1oqIQEbbpjpOcHby4pZpGeCSTOyPZDnyptOVNzMg3V3ydYZbgs0jtYBZ0YU3oMmwRMKvjLnD8ghyQkufDcvb9M1rL2HNKbQFpy/ysr0bPI3pUzAc7Oqg9oLCKugPSM/UKd/XPqy8sLVs5NfmrvYCB1W2CLPPnx5pHe3fMwbDb9tj4ETV1dJglcrMQQDw3DcExlLmG7zaQXDejvzZ0fU5kHl6Np0rPl6xH+vtn5I14fFJjLIMxiKjc4XQ1Jz45F5dIKTA5QJkFrekye/XBKLdLbRXj1YmFHSa9M1rL2gPS4nI10qW5eTtiXSLlBldLbJz3Ozo6/jssLk7BfZZKdkR7bsf95yuxojVVeZuTaRh4CKnvzSK92D14ZiuGr5mUFvdQwLy/Ui49puLW5SWXuV/irLttMepXqHPRxmTWxBPwkT5NeArXGJjw8R+t2XJrhojn3UQ7Ba4NmvY6fCn6A4li00I5k1wdzVXdNLwFcnrLteE8FlvjrLqng5znyjv7cSVuZHultZUnLWqaLj2UNGpsPaS2UcceM1nn65QZWSm9fr3rTvqBB+5yYIEwVCfKaXouZXoIGCPb1rSzrTFsC3JRnubbqUYxqv34FhlUpexIuJujrt2DKLW2nbhFf6De902tUldQaG7AwhG9vL6o1/NWpWJXGhiDbwLP0Rcb4tQbgi0D1nxN4GMj4X/j2hK9Th3Q7vnSg5fSwXEt/902vu+OX96DRoF4ugdp2JYl9aYFvfki4Fp0vnBuN4Y4Znof3EwmTzmWyptsZM4slz0cj5n53MTR0Su9QTn2uh202tSXUy6LwXpaB7RSe44sq6q+HS/mCBHzeQ7aHr7OPAvuV75OmtNW+lYoJzUHsei4ftOpv5aQn/0qgReLsYUcOyVfOxWe62Ad6g/R4XYzLxeBov3Tc3cTlfRk70CHK+zfLXex8rT6Z5b7u9svdZp9c0kuXXLsYeJNScyHmH20K3d06ckrvS6/PeD1TSE6yLPGBQh/IJb3dxt4ib3cTtthH7NMtPiCkJ0/FwqditziqyCGkuVU+IKQnpCekJz7QUz4gpCcO31MOv1XZgoyzezNPIT0hPSE98YGe8oHo5i8TkD/BQHxAfKBXfCB6+5cJrL17F95+Vx/lXPAQf5B42MN8ECHhqb//wCMRn5zfhTXBQ/xB4oG4ATliD8VDtPofd0H+BAPxAfGBXvGBaOWdu7DyH3dBjoKD+IHEQS/wgCK9t/79V/DWO3fhrXd+pchPzgUP8QeJh73KB9HP//1XwH9IdvwZj3IueIg/WB+QeLBY7GZ+UKS3/AtSZvkX64r05FzwQKcWf5B4ID/YW/EQLf1iHZDkln6BTo7HJ3X+MhzCn0v6/HPwL1nyvDiifnr+f/79cpfI+6Tx2qr5f0S4q5+qGoF/+PsvKJyfeXGrxn9S/iTyP9l47l78IyS7G/+2rkjvyR7/FY5h4D39AqxkyfNTvdn37C+7RN5uwe3x5PjJ3+9XJEd74X4K67MD6vzYTx9v3O7xK9Hjyca1j/9P8KH6uefgJ4/FOz+CZ6IInjnTGW9FCEh3/H0Mf8Sfhvvsj5BkyfS6T3rdIXO3YNe5HCtMcq/TGEmdtgH4Y63zMcU2gl2eDyh/04lN3j3l13+mEqRj2mfL7/ftEb35b+vw5q0PAI/X9RHPf/wtKnO+fJjKSrXRz+GX1H2Z7Yd/pPpzP94Y6Mtn9PivPwd/GUXwl99aNvMtfOvzKqv48hmc/0fwZcz0Pvcc/FjJsQxjn6Md0KLo83DseUt6LO8/H+Z26rfA8l+iuaLDX6Mxo6/BdwP9Qn2/q8b6PBz7Vra+Rj5VBuK8I/DPWs5jSs4RGNP6EFY/Alc+1NviuwTUR8uvcbXtaXsoeVN6kRzf1XpfT7WT3m/ydS074b0OjD/bKjr8krX7GfSHlzR+nwd0MDM+2qgEzxBfOffjqyfxOPM1Fe/K3z73HFC86rg3vpnHF5oPDn/Pix3DL234Y4SBdv0WGcQ9vqUzgGjsGv00r9756i+/taTuT7U3PoYFTZRUKoHZLUsF/G8SOHMQg/Tv4J/VfEu0rePBKtyt4fzE3ljevnULA7LPKbs24Hu8BeTsu2p+IhTed1Xv8qWJ9/rqCzCgQByHK0r6T+FRjp6s/7+MEQF9cfa+6kG7m30Rxi4hPhpw3mf3QRUGcXw137vwPbWheQRHr2CWZHcy+9+ncVdePu+DsUuo55Im84racBv0WIwry5N5TOml9dYOlKk3E57eR5d2q/uC0utu3e5ep2zW+BjYrsdeR70/hk94x7O/eQ7G+hCjQaje+yPcLcEzU/4MP5P7suNvT+JS+5R2S8Q4+gx9iOKq/5zevfpBFfqjz1Oc/OaP8OcHVRiIKG4UHzxdhYeNBvz+M/J79NlPau3jFyHRLd78wPzxOTt/5drH1Pbba1DBQB84Ba/c/MAEh2m/6ZDYb/V4v71PWxkOfBdeufkRvHeWtof8+ukPYPHid+GLUQSDZxO4q+Z3SI/HiipwpYbyfQS/v6G3gJz9JSzefAm+jrIcPAvv/QbbP4YrExiQ31SEusjkMHENHuXoxzqzvj9RpDcIZ+78Vun7i9Mk69Ef6/k/w9L7DRhVZEoEGY39DK7f+qUmvUF44d/RAL+Fnx4ncjhz5yPnfAC+t/oBXL90SukdTVyDhzc/gOv8MFAYkQFZNjyyfOqaoxf2tXr3w+TFD8DVm9o/gIXv9NPDQ9vx7p2zirC/+J0lpSfb+dglsll4fr32qbfV5uC5Dfj9b9L+wjJ78obyy7lvzx7EQ/kXJjbov4oDKnC9/hFxzG/+CNcnImDfXPzNH+HBOVpjjqIB/bDFeNTlrUpI8Lw9f4yuvf0BXLv5AYTHn/NazyVufx9eUJnaMXj55geQbn8NjiIhPP0C/NyMx1nQMXj57Q/gV/U3iTi//hJcUME4CGduf6Tnt6T385t6rIOn4Rcs3yUub9+Fa1ppU5YZIjoA//TaB3CNyWHsZym9Qj35nEhvAL63Qvr6+i3BN2MiOvVU4kxPjc86noCf/oZwNGOtZpyvcBaqidPITriyPJnHDL0MOS9k6816pLA68prCnduR9NAPwnOU4+G6zmwj117sF3LMip9M+5m4SMdbr9yv/As5AuP6x8dsuWviIILo6Gsmbn/1B+IMftgSTpb0OsFNkd7Vt99Xk7hH1/npuktE73vBQe2aFJ9+AZbNeJoQNHldfZszsi/CF7BcxUztwQdA/S3pYX9DsG/rdof0rr6t7+VykwpwtT/u73E8JhZNeq5eCFLWuSGqFWr39H+NstJoYgn+/IePgvGZ9MbhJ1pvOxbh6p2zbLrcNKLDp/DQ4Ja2h5Kb+zp6vXyEskrMMrP0Zj3MkgNP2PhY4cDtSHqIS3h+7e0lOKrKWk3Sfc/B+TI5pT0VT3l+12vXlX9p0rv676dhMNLLPOyXeGx8bPD7v19BnhhUZe7R1zgumPT4vL1j9Mba+8B/6PT8eZnX9Pr/Eebxnhe+qVh58OxdWF97H7j92CXuY8vXkRfo2tW5v/P64PgfXqMyFTOPyo1P1Fg0p0N6ax/BHV0K/60a6wYc7aegG5h9F95YY/Lsh+dew7l+CH+FT4pYy+qQA+uDR1e/8JyJ6fkVkt3Tj8cb/H8Ki+/8jSaAsZ/BG2vvwvNqTY9ID8flsb6nx/LOH9zVa5vfhH9CvF/7R/gLlP2vf1gon5KX5Yi+COgAV9/+Ifwt9j14Fu48eN8jPdZv/TaVs9HXafz5k/Ty6K9eIDxcPRGf8Hz+JK2tDp57aMrcL5y8ofykCE+eH4/8J/dbLHoVH+VfmBhhPOpYeMr4E8XxX/D5HL74qMDSZ5tU5vbp+F6zpMe+1Q6eivSurJIx3CM7f+XsC/B5Tj11poP3cTuSHvf74A92YZzLKcwwMDtCodR9vDaI63UfufNa0ltafR/W/7BpgiyK+uD5s7ym964a58MGOO1IQggOkeiVt3QJqUjJysdyZh2ZmJD0sN3T7/4n8OAcrfEpvQYrUMFSX5GgQ3oaRzPWW6Sff/4R/O4zfrmhyRMz1sbHBscs+RR+rNfEWXjeZF8lej/4RC0Iqxcv2o5IYJ/8NkPPUO9X/xG+oEi1Cg/+8BF82NAvTqI+Rbq5cmb4k7E/+4Ecy+29B3E0D+Hoa/CdVYyFJZhgfsGj5pg3XqA3vZXlT+FDxQcbUMXk4q9/CFdWOemJAAmyXT+Mrqy+pzphR/qj8yVe07v8CfyZU08VmNSOBIf/ffKR35+vc5ew/crqf8EnqpGUsfN/TNc/+wQ+0LIgsdF/m/C7P3yqPv75D/9p5LXt2OSMd1/L7Mgb6hee01ib8Lv72fp5en32KXyiXmygrP8Jv8PPzvx2LMT0PQjPryhjk2bq/47OFg/fHkpeJr2xK3pOd9734Yqnt9Ofr+sp8SHE+rNen3xE93vn3M/Ip20EiJMzvvEdvOb7g5wLHuxr6sg+ZeKF+UA7Z+O/yDc/oni3/IEEiaUvtXPsu3xA85TjHV1efR/+deU9CI9MemMXs9vD++V8B3D6OWewP03ZS/DfAfwz4kRw3324R0h4WX83ZuhV8djF7PasPl177V/+Af6Hm0IHn//PbHfoOH1Il7uBfKqk/l//AC85pNe1WOf4k8jbHT4mdngPop+tvAc/e+sOhMf3P6by9b8/ym4P7+/q8187JbrOot3Df/9nWv8noc+GKedd6fTnzz6B91mPxn+l7PUk5M3yG5FjD8RLBh/sJbtGP33rDvz0rfdAjoKD+IHEQS/wQISO/vrP75g/ORc8xB8kHtgH9iIfRJd+fgfU3zIZWs4FD/GHO3BJ4kElQnuRDyI07sXl28rIchQcxB8kHvY6D0SvLd1WpKeOS7dBzgUPdHrxh9twUeJhT/JBlCQJyJ9gID4gPtArPiCkJ6QvDz3xgZ7yASE9cfiecvheyWZEz/zMXUhPSE9IT3ygp3xASE8cvqccXjKg/AyoV7AR0hPSE9ITH+gpHxDSE4fvKYfvlWxG9MzPaIX0hPSE9MQHesoHuoj05mmnsacmYSXLCc+Pqp+e3ze1si0Gmh/Bn/3OfSQAACAASURBVHXaB5PL+U+ITp+eK1P7lOyj57d+7E5l6rZ+3YhRmUxl7d2AMfn1KMxnxVSPXusi0rsM4/g7ck/Pwe0sY1zRu6Gdvr0tpHf5GJLeAMy9s/XEdPs0/Tbh+JWtH7sbAqtTGeZH7EOmGzEqk6msvVNctqafTiLUbzOOw+WsmHoC11ZnDkH8zCysPtbcF+FkHMPJVzuLpy4ivTo08afjNhtQywJkF5NerUG/Tdisd2akrQmC7pqbMhD7kOlGjMpIraz9idlteRL2KbIbhEG1bWv3kN7tl4YhHno5O7HJivvMa0swGccweb0zn84lPZO6j1BZqX69d2TeZFmpdt3G13ljIFPSaUO45SnfS/eE5e0KTD7FvyS8DyZn05keBY6+xy2L2egjo3pz7vL03mR6z2frG5a/vuwJJDwn/+qxI094rxlrKnuuJHF1jyBycE8S9wmOuvu6eZhEERj8M53HOo2RsS17B3KGywMhJjk+gj5h5uclgLCvgyeSiadn0FZINnqZhP0zH9tROJXK0F3s0+1s19ERWs5gXy+S1WsL7MWYsKw8XqF+aOd35mBAbY+6AWf1Tn1dkem9ehLiOKY/k+1R1sbXTfa2NguH4hgOzaxqzlmF2WdiiCs/oKMex9xf4t8uZrmkx0+x6Ngi/XTvMu1GxsCn2pt147hmj1W3T+0enFVPnSN6fWEFTg3i9oVVuK8yIL+8XZmirQdprA2Yw3ujCAZ0eUvOMgjVByie3qWLyQGNrtN6kr4J9RJQiPQi6D99X+n7UO9+xqRhSFGXv6w/lawrMIlbVPI+vFrvPr3+6N+bQDjX0gTqtl+vJzKR6P1A9cbijDvp7beZwNUBTZjxjms+KbrGdz+zjO3Y25OFbdCv12SZtHh/X8cXMKsjncl+m40a8Pyt4Flo+yI7a5lwNzj8L7SxP+4iHNcPMF6WKGtnux54cUONj3r5fQI/LbLX8iT0RRGwrIRXX2trzrUGbKqK6TbMdRPp1Zvw8AJmegvwUMlHRDZ0gewBjxZgKD4Es2sJJKjDowUYjg+r89WZw9Sv+SdobN6C6TiG6TWATqqnUtKrXK8T09YXoYJOMHhKvWhgJzXtSUhiCST1+1BVWyVinxrcq9I2imP4NF8+Bf1o1Oo9Xc66pKfHiiqwqAixBo0begtIRXrzMIayHDwL92qYrdRhURHHGBEqk97EYinZceCTww7C2fWa0re2rveLPUrZbTHpsXMhee2DyTuqUAd0ehyfseLgCedaf5FwOf66xSVi2flhoXHnwMIHwOjrDVCFc1PbSC8BqMxg5BJQVV1O+K6Mxp6l9k6grtS8DzMmI7drsivP96uHlB3Px6RzPEtsX0R6GEi4gnLtiJKNMyiyS3rc+/rB11o7P8ysD2FWXuinRfZiH0Y/f2oS1mntBxrK322Gzv6bfWS/7NLydu378Gw8DTd1nCDR3ZyK4dmqzu5qDdhAklRZ3TAsfMhLX9tU3oaBmiTrepPq43ApI5CT5BI9Gb0XEQw69ak13iTiPDoPFBSug7ikp8c6eAbW2Ym9NT19r34Ss/NG0QGYwbev7DDHLuvUuNxJwiBMalfhBI7/pRlF8mG7j48lZSuLLS39ezk47HqW186yp3QjDOtJFdw9bHE+zgLNQ8bt22Lp58mgMC+zt1Niji/ZbFvb/9IYPgAG4cydbOw7x7PE9uwvWUfOPqMDqkLgTE+R2vIMHEDcxq+aNWUPk7L2JG3XJCmRlZOCLHvVGvCmepBThUN+1VrWbgmQ469LSe+Nb9tyl8tePD63aOK21ripsrrhCxsO4e8Y6flE5DmEGyRZpGfIizOy/dCnSlvO1DAwXNLzA04ZMYv0uJxUxQT+b5OAYeJ4HNILnLw4SDGrpUwGpaBSBJ2VnDTEqnAslp3LQqObzth0toKXOWhxM3T6qk1NZ3cAoMtiDBYus20wpIkolNE8xLTt0u2cxVThoco0Xfsl4GWvGQRUiAHen4unnifP9hlzsd4m+1wmP/F0Ch5y2Ket9iLSy5W12F4WAt5kPVzfTduRdaVjl5Pe3fMwHE/DLePj+gNXLkkCFysxxEPDpswlvbaZ9KIBvUZzfkyVBFyOeg6hHM2Wr0d4Mfo8lRHcBwWuX6cyFYOxcoPT1ZD07FiqFMaF/QF64tGaHpNnP5xS36sLXoIwcbRNehFE36By1gSILu/9IObyOwIufUbxaa2zqnpTr6flEEZhwHM5G+lSnbMTtV7J631EpnZt7ARcrSVmTVWtQyI56nW0E9eozPYDwg8Ytmfr9uYshjLQlan9VDLqh164PMAvejgrJTxzsl1+WZOJZ4ntC0iPdTwwi9/1nIcjOsMiG6bHba89K9NLj+n6Cb+oyLSX973UOjT1Q2zwxXWTBRXZk9q6nPRq9+CVoRi+al5W0EsN8/JCvfiYhlubm1TmfoW/6rLNpFepzqkFVZVeTyzlrlMhyBiENvsgksJFdV7bUobgtSKzXsfB52cKNqBxnD6Yq7prerSeZDMqvKcCS/x1l45JbxAqx3Tw6kVkXig1pbkKlCMwp9cnOWCavJBvShUrDwcb3ZsODr8dn/78EoIwVC9I1NMvoy3ClwGUBWbhjwvhrENRkLAMrdu7Dk1NqlR6nYCKKseIBNVCtJNthv5jSBHxGpn3s6oEv77kZDcKU4snZkC5ti8gvVpjg9aYtY0OTFTUUgGRIPqUi/sYnPHW9Mrbw4cZ4l0ka6G9sKOHbwSRE39FtrRt3Ud6tV+/AsOqlD0JFxP051sw5Za2U7eIL/Sb3uk19u0NWBjCt7cX1Rr+6hS9BTYEWWB3iwdxTemLjPFrerEcM08n7USD0SUmLTryddWouvjt+NKBCsFwgT39PT2b3m9Co+EvhLND8TwAznhcAjryhoqH5zTXJjSbpBeO65G1kVtpDY2U/qwXS2TlYUyYfHguXpQO2xPlDDxO+N1FpyRSt+iSXhudx+Levg6hLew5k15b9rYGQktDU5nI6q2IjwXBo2sPtpG+znIzRtZPeABnXE0m3OLZvtD5few2m016scEL6R7uzQwbu/3T7aFd2cc8mFw/1YmC1SPwOb+jj1+hnmxXltfHjuV6Ikdjd5YpiBv2Ea279Qeti25naFr1b1fXctKTf0XQRjnBzrb7job0xN49YW+XBHrtc2+QHq+LmdJTl436nL+Lt3eNz2uBvt5UlmaVl7uPtJXtwi8ee/a2/+Rtd9u53Ja7W7/t971c0kuXG9svzLYZy6TUbiFhP9sUehfrWFjucJljdfY+NetqPRav7WosuObxlOMTfxlg23yt0A5b4V/ltty9um0FPuVj5JKeAFcOnmAkGIkP7D4fENLb9ifz7nMKCWSx2V72ASE9IT1ZuBcf6CkfENITh+8ph9/LGYzo1lqGLqQnpCekJz7QUz4Q8bstOQoCgoAg0AsICOn1gpVFR0FAEDAICOkZKOSDICAI9AICQnq9YGXRURAQBAwCQnoGCvkgCAgCvYCAkF4vWFl0FAQEAYOAkJ6BQj4IAoJALyAgpNcLVhYdBQFBwCDQRaSnfyk3tZ+AllX/iixviWc02KIP9Eu8vKXkFg2qh+FfkzZbY27t8HtitG7EqEymsvYnZxj3F6Dx58S2x6+fnH6PN7OQnsZPSO/xHKmT3ksTNhi7kUDKZCpr7wSTregTykXnFuutmKPTMcy+t50OoPrZfW87GaaLSK9E/F2c6ZVo1pPN2/mQ2SpAQ/IIxy1rD+9/YufbHDvt6NXVpGcMOmF3L8ONSfi/VLtu4+v8q7ympOPdnPTu8jgO30v3hOWtm6IPQvUcyeGWt97mMG5ZzBvSTFRon13cNIgFzzmaINTz8EY2fLtpf0BXfNn9LRdVX0ee8F4zVs5cAK7utCEMywFZG+bYxmDDnAgM/s49WR+NjG3ZO5AzLKPYDvwLxjk+gjY18y9r6cK+Dp54R67ts5Rzr2VstmOb3c2IKlDVGwNZDIvb2a6VCdq8nX21SFavDXcIZP2d+OBY4vGsvK194jk67d/aLC3ctTZt97kdWoCHqgtlbbShdwzTa3qcRwtqA6HhC3QXxoTaGGjqMh31ZkLm/ham51tyMz12QkN0wdMi1e4YyRjO68MBwgSkz40z+6TH49NY3DcCNhw7WFWRkO7LpGwChudidfOPoWP483OQ2RLBbw908fQOyZ3HytOFddWya118vf220EY+Zq1hwPqEY/G8qXZDPDy+bz+z7y7bJMDEt1+IUTGeft/A9vkmNnsBhzqxv2aO6xBRa+3WrihKZp8Ak0x7Zdrd+l+Rml6bxr1b1vX8TI+IzBCbIrphWHikNXDO/X7bVN6yk7NDmAxDk1S6PXBUJbd/zesTGNUfPwh8HMsLmiDAjHPlkIHnBdknvnM6mZt20LDd08XLzNKO6d8bBkIQ8EzYHBg8tsad5KC9LqxttE7GwcPsMFtn92ooo2+PQEa3I8vH2Vyuf3idAjIIx2f7Zy3Cl9jenyb7zMXJkFp6XB+Tsva0XUMMURiyn/ZTVw5jby0y+wHiahKDbHVyrxaNn9tpexs88lKk5m/2fWsqBkOCmEhdGNbZoUOGsGOkx45IBvMdAoFKO4Ut04JsYGJJlzMuQbj93c/aCNqA9JTW7Rxo5qjHY4cJHanAniGphfqE7Sn9XQfT8jAphfcWjsWyG514M5+A0J12zlws3tyn9YAJZbRj5dmbA5gJ1rdZqGMIfdiemj8XzxLbhxO55wZb8hNvTm5zfKatdkNoGT7t2IpKVb6HYyrbXoSR09bCMo1Rl/VRc3P8mdYn9sEjPbfcDfa+tQISwblECDtHer5Tew6hJNQG9J5K6Wvs7IMHw4B0x2dncIyVRXreXBamVGnlNOV9ZLmoXG430/NHtc6aTRjhXB6W7KxO8Pmj2zPul1m68Dh603LbK/sTj8VEHZJ+WXv5/f68hRj4tzrrd4in6yfBjSWnoQ7+eXrc9tr5IcCEhsKkx8wVsdBeehwksBb8wszbZYSHunukl5Hphfhg5hcPDcNwvIOZnkmtPdIJyxES1XeSsCTV6jhPcBtg2OY7iD8Wk6BdL/GDxu/bOelZp/LnD/W18pAOwfxc8uWUer7seWNrwudgUM7O89qHAY2VTa68JODjHLqVb7vW7c2B6M9t+nty24cIZ6WEryUIH+9iPH38wnuz9cOrPEdYLTA+meOa8jckNdbfvnzw+5Mc/jVfVpaH5/fsFcQb+zTjl6+l1TPzYVjUcQfaPNLTLydsFhdkdSoTpPLX77fd5e25Kgxyeu48ZVIG04DxdX7jZAxqAGVnsYFLTb5D4DVyGEzvW3h766b+YcCZufM/sHPymzeU33cwlhvlKXuzR/fwG2PGhLHguTirDNttaalLGy+jZeLTbcEbUx6L8fd1yNef+1XasbfzAENMKhO+3hyoLIuXpbCNdPZi5jdvL128g3E930i3FWgJVawwtD8PTlSUb1uMXGyzbFzcHtqV5bB+nJaV9TYyOd9uYBLkNg8/Hjx1dGW0uuIYVs9Up527oLK7GOKY1/KIwPjtbTx1i2TRpa99O8tvb6ldZYCxv/7XqhKlb285UFsdUO7bnQhw8Im9d6f9ROrWERDSax2rPX2nkN6eNq8o5yDQG6TnllJcqjvHvZ/d5Jc8qnQyb9Pt+pTjI7vno1du+6VdN65vdQZsuS07G7d3euWSXu9AIJoKAoJALyEgpNdL1hZdBQFBAIT0xAkEAUGgpxAQ0uspc4uygoAgIKQnPiAICAI9hYCQXk+ZW5QVBASBKEkSkD/BQHxAfKBXfEBIT0hfHnriAz3lA0J64vA95fC9ks2InvmZu5CekJ6QnvhAT/mAkJ44fE85vGRA+RlQr2AjpCekJ6QnPtBTPiCkJw7fUw7fK9mM6Jmf0QrpCekJ6YkP9JQPdBHpzcMo/tzTU5OwkuWE50fVL97um1rZFgPNj+BPEe2DyeX8J0SnT8+VqX1K9tHzWz92pzJ1W79uxKhMprL2bsOY5CmJs6zY22PXuoj0LsM4kt7Tc3A7C+Qr44o4Bk7f3hbSu3wMSW8A5t7ZemK6fXpAyT5+ZevH7s7Aak3P+RH7kOlGjMpkKmvvTtuk4wzJe6ceyKszhyB+ZhZWs2K85WsX4WQcw8lXW/Oz0A5dRHp1aOK/kNlsQC1L+V1MerXGpvq3P816Z0YKjbYXzimztg+ZbsSojNTK2rvTTn6ccba6Uw/k2y8NQzz0cnZikxX3mdeWYDKOYfJ6Z/GUS3oMxugIlZXqF3ZH5k2WlWrXbXydNzMxT5DlSdgXReCWp3wv3ROm3Ssw+RT/+u0+mJxNZ3oUOPoetyzWc0Ujo1QyR6MwnwmeBc1kes9n6xuWv77sCSQ8J/8isyNPeK8Zayp7riRxdY8gcnBPEo0TzxPo5mESRS0/wY2Mbdk7kDNcHggxyfER9AkzPy8BhH0dPJFMPD2DtkKy0csk7J/52I7CqVSG7mKfbme7jo7Qcgb7epGsXltgL8aEZeXxCvVjPw/xMz7kxFkKixkdc0688Dimv42ZluRgefD46km9cXfsZHuUtfHGQCZ7W5uFQ3EMh2ZWNeeswuwzMcSVH9BR75Nr7nfnKfmcS3r8FIuOLdK/UNY/xc3Ap9qbdeO45ufX3T61e3BW7UR1RBPQCpwapL1v76sMyE+7V6b6VElIY23AHN4bRcDlLTkLbyGod85iw7wzBwOKFMaBpG9CvQQIIr0I+k/fV/rynhFM2oYUdfnL+tMTcgUm+519fLXefXr90b83gXAu2i1rv15PZCLRu8Xpn7pn3Elvv80ErnZiwox/Vtxx4AIMWMZ27O3Jwlt49us1WQ4W3kHP8QXM6tydwzYbNeD5W8Gz0PYFOvKDiXcFC23sj7sIx/WDhbOgsna264EXN5QPoV5+n8BPi+y1PAl9zg5mhFdfa2vOBdgniRNn9abZFlP5TPNP0LhRUXE2ph8+K8/3Uxxer5uEp22yY5vgfBcw01uAh6qiIyIbuvCQOObRAgzFh2B2LYGk1oBNtXPaYXW+OnOY+qGMm3YLyE6qp1LSq7Cy9UWooBMMnlIvGthJTXsSklgCSf0+bbmn+tTgXnXQArp8CvrRqNV7upx1jMFjRRVYVIRYM8Yg0puHMZTl4Fm4V8MnTx0W1faDY0SoTHoTi6VkxwYkhx2Es+s1Zdza+lna+vIoZbfFpHcb5p52stI7qlAHdHocn7Hi4AnnWn+RcDn+OmaMhEvEsvPDQuPOgYUPgNHXG6AK56Z2SL0EoDKDkUtAVXU54bsyGnuW2juBulLzPsyYjNyuyaaChW42mHSOZ4ntOcCyjhhIuIJy7YjyQ86gyC7pce+fI7u01s4PM+tDmJUX+mmRvdiH0c+fmoR1WvuBhvL34myrGHs3ztK+mbDdld/rmDZxWDwvx1LR0Stv174Pz8bTcFPHCRLdzakYnq3q7K7WgA0kSZXVDcPCh7z0tU3lbRioSbIOZ1SmdhwuZQRyklyiJ6P3IoLJgPrUGm8ScR6dBzKM6yCuMfRYB8/AOjuvt6an79VPYnbeKDoAM/j2lR3m2OWWn05hECa1q3ACx//SjCL5sN3Hx5KylcWWlv69HBx2PctrZ9lTuhGG9cTZh1jfw1mgeci4fVss/TwZFOZl9nZKzHHc4VdnMdr+l8bwITAIZ+5kB0rneJbYnv0l68gZUHQAcM9hzvQUqS3PwAHEbfyqWVP2MClrT9J2NVmVaw/1WfspJwVuO9ur1oA31YOcH6Z4bC1rL8bejbMM0nMTiPABnIVpm9c80nvj27bc1eWqIrjnFk3c1ho3YVrtb7vhEP6OkZ5PRJ5DKMV1kGSRniEvzsj2Q58qbTlTw8BwjeEHnHpyZJGetwk2ZsibBAwTx+OQXuDkxUGKWS1ldyiF3dyZnDTEqnAslp3LQkr8AUBnbDpbwcsctFHEZU9NZ3cA7kbbXGYXPoFT61dl9uYspgoPVabp2i8BL3vNCIxCDPD+XDz1PHm2z5iL9TYZ0DL5iWeX4CGHfdpqLyK9XFmL7WUhcDY+5yWcAj2Lsfft5Omox6xfpxJ3f/8WlrZ6bI/07p6HYbPpt3F0AK5ckgQuVmKIh4ZhOKYyl2y5zaQXDeg1mvNjqiTgcjQNli1fj/Bi9HkqI7gPCsyAYkZUucHpakh6dixaW1iByQF64lF5y+TZD6fU9+qcxVkEl4mjbdKLIPoGlbMmQHR57zsSp/0RcOnjfsew3tTraZrsQ6wKA57L2UiX6pydKGfn9T4iU7s2dgKu1hKzpqrWIZEc9TraiWtUZnPwZx1ZxtbtrYMnogx0ZWo/lYz6oRcuD/B6GmelhGdOtssva3TW4+NZYvsCMmAdD8zidz3n4YjOsMiG6XHba8/K9NJjun7CLyoy7aXX+wivOjT12u7gi+smC8qyI14rxt4nvdq1E8puhIHOyrnEVfjwElN2xp4nQ951j/Rq9+CVoRi+al5W0EsN8/JCvfiYhlubm1TmfoW/6rLNpFepzqkFVVW2TSyZNRl2IBcsDEKbfRBJ4QIpr20pIAygIZiBMcxiN47TB3NVevrwiwx8CtqMCu+pwBJ/3aVj0huEyjEdvHoRmRdKTWmuHOEIzOn1SQ6YJpd3plSx8oRYFZJegk9/fglBGEaYKainX0ZbhC9zKAvMwh8X7VmHPEfE6yxj6/auQ1OTKpX0J6CiyjEiQbUQHe437PiPCUzEa2TezN8KnoW2LyC9WmOD1pi1jQ5MVNS6LZEgrlG6uI/BGW9Nr7w9tCviWiRrob2wo4dvBJGDX5Eti7H348ys4SEmXFqbEhfnbH1dvFAmbZfar1+BYVXKnoSLytdvwZRb2k7dIr7Qb3qn19i3N2BhCN/eXlRr+KtTsSqNDUEW2D2Uq/RFxvg1vViO2aeTdqLB6JL/BODrqlF18dvxpQMVguECu//9IXYYGmcTGg3q5RIo+oX9zxmPS0BH3lDx8JzG2oRmk/TCcd25rNzY0oRGSn/WiyWy8jAmTD48Fy9Kh+2JcgYeJ/zuolMSqVt0Sc9OpeXi3r4OoS3sOZNeW/b2DNCEprKH1VsFHwuCR9cebCN9PY1BPp6+b6gBWnxh5WO32WzSiw1eSPdwz7Kx2z/dHtqVfcyDiZcpWrGX39HHryzIXXw97MM4c3DmpMGU6hGYF1tl87XabuRiP3Hmd+XUunPMmJjQPsTQtOrfbAs8lpOe/CuC0nLCBXS3fjakJ/buCXsX+6ler93Ct7bF89mH707c1xukx+tipvTUZaM+5+/i7QTgT2YOXgv09TZvmlPl5c464ZZhEn7Z1rO3/SdvWzZfq9nNlt5XbsvH0s/BsLLM2dgu9Ycc3HNJL11u7GLFTUqN+XP6P5tC72IdcwxMAeCWZWn9sezcE/bmmidDRfNmvxCn3WD/cls+Fuk5GO7VuMglvccCbtc71m5wfpFRfFR8oBMfENITgpY1LPGBnvIBIT1x+J5y+E4yA+mztzJKIT0hPSE98YGe8gEhPXH4nnJ4ydr2VtbWiT2jzBddclEQEAQEgT2KgJDeHjWsqCUICALZCAjpZeMiVwUBQWCPIiCkt0cNK2oJAoJANgJCetm4yFVBQBDYowgI6e1Rw4pagoAgkI2AkF42LnJVEBAE9igCQnp71LCiliAgCGQj0EWkp/cBSO0noAXXvyLL2/dlq9P5VXdLws5Hye7JvyZNWzNm39PrV7sRozKZytp73abdqr+QnraMkN7Ou+jSBO9bbDc56qYHQxmplbXvPKKtzrgElbzkImsI/Nn/1EZVWTeWXzP73pbfWnCH3fe24Kbcpi4ivVwZqWEXZ3olmvVk83Y+ZLYK0DJSK2vfKjm2dpySiiqcjPc56QXSMwadoA15eGMgxiTVrkHh6/yrvObJzbs5ndO7mTtbGNI9oTHcTVoGoXqO5HDLW29jIPfJZQxVoX12cdMgFjznaIJQzxPqa9of0ACsZ6gf660289FzhfeasXLmAnB1pw1hrNjOdoDql4F93TxMcMe5Zduz6JORsS17B3KqTYqcWdgO/AvGOT6CNjXzs7xhX9e+3jabuOl7FaxXOfNnfczYbMfe5mJbgareGMhiWNzOdq1M0Cbh7KueTQJZvbbAXowJ+xSPZ+XN/5Q9bp69XL30Jltq6JzrgW0sPvnyqJa1abvP7dCCthllbbShdwzTa3qMRwtqA6HhC2zZh7Qx0NRlOurNhMz9JVO7zbmZngGcGT7ItFLtKRIDs5sTGYsB5yDV58YJNMD6nMcnQLlvBGx4djDctNlsNM2yGqPwXK7K2Z/ZSXh8f37eeS2vHAt0ycGKnSOcy9eFddWya11YLrrXb8NdstR/el4fs9YwYH3DsXjeVLshHh7ft5/ZdzeQjcfzdQ7L22I8/b56Xp4n27x0NcCSdfLtwja2Ad9eu/VRnLRQ1iJ7BbL64xQpaeMu2w8CO/EDluOQY4fxLDknDBmzErmQIy4MQ2wIj4jMEJsiumFYeKTHcc79fttU3oYOYYglk5RQyMBRldz+NW/MwKj++EHg41gekYSGY+fKIQONYdEh5VSBscN2TxfWXWU0aQfw72VZ7X1eezBviCvJQXtdcDAavTRGYZZq2gs+eDKo+3yM0+08GNtK77+R6x98Px07x9OXC0ejsZh8/Xkyz1ycTHaVHtfXuayd5bB29X3a1VvL6srBJMMCsx+gTzEhcVvZsWhc3qo0NabWL8jKw4eXj4ndVJ4fZmWieeSlSG0abjmdbk3FYEiQSVJldQ4Zwo6RHjs3GSylfCaYfh/jBBNLupzJc5C0g2WSHhvIHPV47DChIznghh/DIDSyaucI21P6u46m5WFSCu8tHItlNzrxZj4BoTvt1uEYb+7TesCEMhqy1UsD6XYOci6/fZuFOpbhnRo/F88gOA0Ori+Fs+lzgy3d683JbY7PtNVuyNeVo0zWYnsRho4tW1imIU2LxvXtZO2sM9QQh+CcMeGS2xwd3HLQV5c9fqrehgAAEc1JREFU0nPL3WDvWzsGEZxLhLBzpOeDxcpzYBvwvCeIBt+5xsEweDAMSHd8Nprz9NZBQAHu3mvhMZ8CQ5nrBR9YLiqX7ROMy72wPa2/Hdw6a/YDonCsNmRnGaJwLQ1F4XH0puVWuuxPPJa1p49xWXv4kEjf789biIF/q7OpO+LpyxXcWngayuSfp8dtr50fAhmk5/h/roCF9tKyIcG3SC5mntS4gZ7czuOWnPuYmFla/uCRXkamFw6EmV88NAzD8Q5meia19kgnXIMhUVOABH3UXc4T3AYYtvjG8MdiErTrJX7Q+H1NwLMhQyQzzg1R6T7+/KG+Vh7SIZify13t7OFYvux5YweZnZKL57UPAxorm1w5O/ZxzlDeWY9t3d5a5yATNP1zgoezUsLEEoSPUTGePn7hvdn64VWew3twmvI2JC3Wz74Mypw3tz/Jkdknxy88e4Wxo/Fk/PK1tHoau+ux6Fz7EBMx20mfk7wuuWocOJb4/pw4KZJL2aBoTU9ncCarU5kglb8eWW57pneuCoNcQrDijgMZYLW27Fic9obthtxSqXraeY0BMJMpe3vrjhcYpswQ2M7OyW/eUH7fwWwQRFHZmz0sSSwxMSaMBc/FWWXYbrJmxp0dVCnCxMdljyUObOaxGH9fh3wkuF+lHXs7DzDUtzLh620ePqyH4z9em1nusARj/YT1tHhae2W3FWgJVawwtDyDExXl2xYjF9ssGxe3h3ZlOawfB/iU2cvD1yUiHjn/yPY0umZ8awLb0Ce9ew9WoBJUYVZ+7WscX4yjM3a+RLpFZXcxxDGv5flvb+MpvcKnS1/7dpbf3lK7ygBjf/2vdG59Q+nbWw7UVgeU+3YnAuz4Yu/daT+RunUEhPRax2pP3ymkt6fNK8o5CPQG6QXpOKf8fNz72Y1bltnyjvXHxfE9QXphOchltTr6ywBODOyyj+W23GUK7bi4uaS345LIhIKAICAI7AACQno7ALJMIQgIAt2DgJBe99hCJBEEBIEdQEBIbwdAlikEAUGgexAQ0useW4gkgoAgsAMICOntAMgyhSAgCHQPAlGSJCB/goH4gPhAr/iAkJ6Qvjz0xAd6ygeE9MThe8rheyWbET3zM3chPSE9IT3xgZ7yASE9cfiecnjJgPIzoF7BRkhPSE9IT3ygp3xASE8cvqccvleyGdEzP6MV0hPSE9ITH+gpH+gi0puHUfwJoKcmYSXLCc+Pql+83Te1si0Gmh/Bn1zaB5PL+U+ITp+eK1P7lOyj57d+7E5l6rZ+3YhRmUxl7d2GMcqznX7ejfpmydRFpHcZxpH0np6D21mkd2VcEcfA6dvbQnqXjyHpDcDcO1tPTLdPDyjZx69s/dhZRt0t1+ZH7EOmGzEqk6msvRvtsJ1+3oq+qzOHIH5mFlazYrzlaxfhZBzDyVc7i6cuIr06NPFfqmw2oJal/C4mvVpjU/0bnGa9MyO14ky77R7KOOxDphsxKiO1svZutEmdggwatSfji7dfws2+X85ObLLiPvPaEkzGMUxe70yHXNIzqfsIlZXqV3ZH5k2WlWrXbXydf5XXlHTLk7AvisAtT/leuicsb1dg8in+ld99MDmbzvQocPQ9blms54pGRqlkjkZhPhM8C5p5Aj6frW9YFviyJ5DwnPxrvY484b1mrKnsuZLE1T2CyME9STROPE+gm4dJFIHBv0R/I2Nb9g7kDJcHQkxyfAR9wszPSwBhXwdPJBNPz6CtkGz0Mgn7Zz62o3AqlaG72Kfb2a6jI7Scwb5eJKvXFtiLMWFZebxC/ZLEYMn91FFjxDKqZRzG2MQJxlJ5rJTNn9v+6kmIeX9bk+1R1sbXTfa2NguH4hgOzaxqzlmF2WdiiCs/oKMex9xf4t+uTLmkx0+x6Ngi/Uth/VPcDHyqvVk3YJufX3f71O7BWbUT1RFNQCtwapD2vr2vMiC/vF2Z6lMlIY21AXN4bxQBl7dkPP4JcL1TGZPDO3MwoEhhHEj6JtRLQCHSi6D/9H2lL/98OpOGIUVd/rL+VLKuwGS/s4+v1rtPrz/69yYQzkW7Te3X64lMJHr3L/1T94w76e23mcDVAU2Y8c+Kt+bELGM79vZk4S08+/WaLAcU74Dm+AJmde7OYZuNGvD8reBZaPsiO2uZePez0Mb+uItwXD9YeFmirJ3teuDFDeVDqJffJ/DTInstT0KfsyMf4dXX0pozZ83urnqD1XuqgvL8OBUnWr52HiJFeIdt9SaYrRxVRUdENnThIXHMowUYig/B7FoCSa0Bm2rntMPqfHXmMMRDC/Cw+SdobNIOarhTWifVUynpVa7XiWnri1BBJxg8pV40sJOa9iQksQSS+n3ack/1qcG96qAirjF8mi+fgn40qjZGkrikp8eKKrCoCLEGjRsVh/TmYQxlOXgW7qk0vQ6LavvBMSJUNubEYinZ8ROAnGEQzq7XlL619bO09eVRym49Z0mSIEhvw9zTTlZ6R9UQgE6P4zNWHDzhXOsvEi7HX7e4RCw7Pyw07tSX5hp9vQGqcG5qG+klAPVkH7kEVFWXE74ro7Fnqb0ToFLpPsyYjNyuya48308PLeM/Piad41li+zDQ3HMMJFxBuXZEycaZENklPe79c2SX1tr5YWZ9CLPyQj8tshf7MPr5U5Ow3kFZyokD7kW8oX3Rw53nYF9LOI764dQ2vNBTfuaWt2vfh2fjabipZUOiuzkVw7NVnd3VGrCB++SqrG4YFj7kpa9tKm/DQE2SdTijMrXjcCkjkJPkEj0ZvRcRTAbUp9Z4k4jz6DxQULgO4pKeHuvgGVhnp/XW9PS9+knMzhtFB2AGjcXGPHZZp8a2jGWSC4+eM+CctatwAsf/0owi+bDdx8eSspXFlpb+vRwcdj3La2fZU7oRhvXE2YdY38NZoHnIuH1bfGp7MijMy+ztlJjjS3azdm3/S2NIzINw5k429p3jWWJ79pesI2ef0QHAPYc501OktjwDBxC38atmTdnDpKw9SdvVPMhde6jP2k85KXDb2V61BrypHuT8MMVja1m78m2dKaI/Vm4wWQQysq85ceI9gLMwfMxr3preG9+25S6XvXh8btHEba1xE6bV/rYbzjrkjpGeT0SeQyggdJBkkZ4hL36S7Ic+VdpypoaB4ZKeH3DKiFmk522CjRnyJgGTYcyQ5MLzMAiTwMnD9pT+lPaoNN1ujkxOGt5bOBbLzmUhJf4AoDM2na3gZQ7aKOKyp6azOwB3M20us0Od3fNQRvMQ07ZLt3MWU4WHKtN07ZdAWfAUYoD+lIunnifP9gVBabLPZfITT6fgIYfYtNVeRHq5shbby0LgbDTPSzgFeqLs89/QZDmx5JWAHu7saw7plT2sXJ/p5LNHenfPw7DZ9Ns4OtashvQuVmKIh4ZhOKYyl+bcZtKLBvQazfkxVRJwOeo5hDKALV+P8GL0eSojuA8KXL9OZWr4BPJJz46lSmFc2B8gI9KaHpMnp+HBS5AMY5YZiJwhgugbVM6aANHlmR/EXH5HwKWP+x3DelOvp+UQhud4qeDitU9dqnN2opyd1/uITO3a2Am4WrML2GodEslRr6OduEZldhEGbM/W7c0ZF2WgK1P7qWTUD71weYBf9HBWSnjmZLv8skZnPT6eJbYvIAPW8cAsftdzHo7oDItsmB63vfYgi1JypMd0/YRfVGTay/teah2aem138MV1Qwi59jQvayqw5BAI3u/5HsdJxOvJ/CBzk5HsTD137gL8sY9HerV78MpQDF81LyvopYZ5eaFefEzDrc1NKnO/wl912WbSq1Tn1IKqKtsmlnLXqVAhDEKbfRBJ4aI6r20poHityKzXMah+pmADGsfpg7mqu6ZH60k2o8J7KrDEX3dhYzpPsDIjkTMMQuWYDl69iMwLpaY0V4FyBOb0+iQHTJMX8k2pYuXhYKN7A8cLSS/Bpz+/hCAMcU2GsqmMtghf5lAWmIU/LtqzDkUYsIyt27sOTU2qVNKfgIoqx4gE1UJ0uN+w4z+GFBGvkXk/q0rw60tOdqMwtXhiBpRr+4KgqzU2aI1Z2+jAREWt2xIJok+5uI/BGW9Nr7zdIxQtR5GshfbCjh6+EeD+xF4s5eg6f1T7jfFFPKfvRHoycpxMnIU5fBEX4FzkL5221X79CgyrUvYkXFS+fgum3NJ26hbpqN/0Tq+xb2/AwhC+vb0ISVKH1alYlcaGIHOwyJKz9EXG+DW9WI7Zp/PUQIPRJSYtOvJ1TlbTAae/j8flmhE2/T09m95vQqPhL4SjMrZdSWJfWnAJ6Mibpbx7jcbahGaT9MIRfQdjuWmuRkp/t92XhzFhLHgu/q5U2J4oZ8Ax9H9M5gorpyRSzbqk1zjyWLZreZaHODDptWVvzwBNaCoTOS9O2A4sjGsPt61ZVw9MvI0xQscmi5vO1r5Ftjf+5Psl2drHbrPZpBcbvJDu4d6EtI3d/un20K7sXx5Mgd8X2svv6MUfj511DLsRguQnnoxMeseu2mWRQL6s8R/rmrE7+0lgZ/YRrYT1B429bmcd/RjNsnn6Wjnpyb8iKC8nCgMtDfpjOc02zWVIT+zdE/ZWPmhIr/UXft3ou+3K1Bukx+tiXrrP6bx9y9oueLvnfl4LtDpTKaPPU+Xl7iDqFP5mLStLT/tP3lL9tulBsj3zlNuy5XmF9HxH57Tbppd+e8vAdoNDmZSaSyX/uCd0LMTZLct83dVZZnm5C+3NNU+GiubNfiFOu0Hnclu2HJscF1xS7npsWrNfbqbXMnA9ApTg0ZpDCU6CU7f7gJCekHbvrGGJrcXWSQJCehIIEgjiAz3lA0J64vA95fDdXnqJfNu/PCCkJ6QnpCc+0FM+EGW+6JKLgoAgIAjsUQSE9PaoYUUtQUAQyEZASC8bF7kqCAgCexQBIb09alhRSxAQBLIRENLLxkWuCgKCwB5FQEhvjxpW1BIEBIFsBIT0snGRq4KAILBHERDS26OGFbUEAUEgG4GeJD361V3ePjIbGLkqCAgCexOBQtLDn343e9juIf2F9PaQMUWVXYWA2ff2saS2+952Mkwu6fFeF3uR9DoBSvoIAoLA4yPQvaSXsSEJqstEyL+6yzvFg9nERZeMvCGMs/Vd2NclU26rnHP2dHX6Zs1t+/NmLhWo6o1clHwTS97mMVZW3lTGKW89fZ3rhTo/vgPICIJATyGwNm33uR1agIdKecraaEPvGKbXNCKPFtQGQsMX6C6Ah7Qx0NRlOurNhMz9bQDZeqaniYHJJlUiMnFMVPWOU5Y8DKkta8n0vUxE3I67PeF/fM5zhee8SxT1Z9KLdCluz/12K48neyALtVVAScLb7p0j4L1+bYAstwoCggAh4Gd6RGSG2BTRDcPCI42Wc+732+HylgmIsj1LJCgmkQLtT8CEhgxdPRiB2sbQWN6/xmMyyWWSmpf5uf2Z5KwsITkVnYdtPLeShTNW3FvDm98oIh8EAUGgDQQ88lKkNg23nP63pmIwJIgJ0IVhnR06ZAg7RXqcyeH+sobgLNEouQ1JuNf1/qUeaTBR0VjFpFfW3x8L5QiJrOic2tIbyTBpp9t1FugYSj4KAoJAawh4pOeWu8Het3Y0IjiXCGGnSK+IOEhAJh9NIIbk9HVzjnf714pJz7/Xm0uNyfNaMiqT1W13P1ugsz45m0/rMjzrLrkmCAgC+Qh4pJeR6YU9MfOLh4ZhON6BTM8r80z2pNfNMjI6Ji7MkIhIIuBsiduyy9f0Gh7P3Vr/xyO9cC6PBIP1PgjW+EIDybkgIAgUI+CRnn45YbO4IKtTmSCVv36/bSpv7RtZXs9yMp0ogspEBXBdz1v7Mtkc32vLXCY+fvNrCDDjxUVIRAhjfv/HJD0c3JTulKW6soVt/LKl2LTSKggIApkIqOwuhjjmtTwiMH57G0/pFT5d+tq3s/z2ltpVBhj763+Z82VczH17m3GvXBIEBAFBYNcjIKS3600oCggCgkA7CAjptYOW3CsICAK7HgEhvV1vQlFAEBAE2kFASK8dtOReQUAQ2PUICOntehOKAoKAINAOAkJ67aAl9woCgsCuR0BIb9ebUBQQBASBdhAQ0msHLblXEBAEdj0C/x+7exK4Jo2FtwAAAABJRU5ErkJggg==;" vertex="1" parent="1">
          <mxGeometry x="165.5" y="190" width="317" height="270" as="geometry" />
        </mxCell>
        <mxCell id="dYOXATitDUWGJcL5hWWd-10" value="" style="endArrow=classic;startArrow=classic;html=1;entryX=0;entryY=0.5;entryDx=0;entryDy=0;" edge="1" parent="1" target="C-vyLk0tnHw3VtMMgP7b-24">
          <mxGeometry width="50" height="50" relative="1" as="geometry">
            <mxPoint x="40" y="600" as="sourcePoint" />
            <mxPoint x="100" y="170" as="targetPoint" />
            <Array as="points">
              <mxPoint x="40" y="165" />
            </Array>
          </mxGeometry>
        </mxCell>
      </root>
    </mxGraphModel>
  </diagram>
</mxfile>
